<svg width="18" height="19" xmlns="http://www.w3.org/2000/svg"><path d="M5 0v1h8V0h1v1h2a2 2 0 012 2v14a2 2 0 01-2 2H2a2 2 0 01-2-2V3a2 2 0 012-2h2V0h1zm12 7H1v10a1 1 0 001 1h14a1 1 0 001-1V7zM4 16v1H2v-1h2zm3 0v1H5v-1h2zm3 0v1H8v-1h2zm-6-2v1H2v-1h2zm3 0v1H5v-1h2zm3 0v1H8v-1h2zm3 0v1h-2v-1h2zm3 0v1h-2v-1h2zM4 12v1H2v-1h2zm3 0v1H5v-1h2zm3 0v1H8v-1h2zm3 0v1h-2v-1h2zm3 0v1h-2v-1h2zM4 10v1H2v-1h2zm3 0v1H5v-1h2zm3 0v1H8v-1h2zm3 0v1h-2v-1h2zm3 0v1h-2v-1h2zM7 8v1H5V8h2zm3 0v1H8V8h2zm3 0v1h-2V8h2zm3 0v1h-2V8h2zM4 2H2a1 1 0 00-1 1v3h16V3a1 1 0 00-1-1h-2v3h-1V2H5v3H4V2z" fill="#A0AEC0" fill-rule="evenodd"/></svg>