<svg width="9" height="9" xmlns="http://www.w3.org/2000/svg"><path d="M8.744 7c.166.156.256.325.256.5C9 8.328 6.985 9 4.5 9S0 8.328 0 7.5c0-.175.09-.344.256-.5.618.583 2.285 1 4.244 1 1.905 0 3.534-.395 4.19-.952zm0-2c.166.156.256.325.256.5C9 6.328 6.985 7 4.5 7S0 6.328 0 5.5c0-.175.09-.344.256-.5.618.583 2.285 1 4.244 1 1.905 0 3.534-.395 4.19-.952zm0-2c.166.156.256.325.256.5C9 4.328 6.985 5 4.5 5S0 4.328 0 3.5c0-.175.09-.344.256-.5.618.583 2.285 1 4.244 1 1.905 0 3.534-.395 4.19-.952zM4.5 0C6.985 0 9 .672 9 1.5S6.985 3 4.5 3 0 2.328 0 1.5 2.015 0 4.5 0z" fill="#F7FAFC" fill-rule="evenodd"/></svg>